<mxfile host="Electron" modified="2024-04-20T12:00:15.861Z" agent="Mozilla/5.0 (Windows NT 10.0; Win64; x64) AppleWebKit/537.36 (KHTML, like Gecko) draw.io/24.2.5 Chrome/120.0.6099.109 Electron/28.1.0 Safari/537.36" etag="-KUGPDqRYoIYMtpRCVSD" version="24.2.5" type="device">
  <diagram name="Page-1" id="iz0g_oNuLMphUpSVsMll">
    <mxGraphModel dx="1292" dy="65" grid="1" gridSize="10" guides="1" tooltips="1" connect="1" arrows="1" fold="1" page="1" pageScale="1" pageWidth="1100" pageHeight="850" math="0" shadow="0">
      <root>
        <mxCell id="0" />
        <mxCell id="1" parent="0" />
        <mxCell id="VanpKMeyFY_iodrqQJK1-1" value="GameBoard" style="swimlane;fontStyle=1;align=center;verticalAlign=top;childLayout=stackLayout;horizontal=1;startSize=26;horizontalStack=0;resizeParent=1;resizeParentMax=0;resizeLast=0;collapsible=1;marginBottom=0;whiteSpace=wrap;html=1;" parent="1" vertex="1">
          <mxGeometry x="815" y="1394" width="260" height="190" as="geometry" />
        </mxCell>
        <mxCell id="VanpKMeyFY_iodrqQJK1-2" value="+ _boardSize =&amp;gt; edgeSize * edgeSize" style="text;strokeColor=none;fillColor=none;align=left;verticalAlign=top;spacingLeft=4;spacingRight=4;overflow=hidden;rotatable=0;points=[[0,0.5],[1,0.5]];portConstraint=eastwest;whiteSpace=wrap;html=1;" parent="VanpKMeyFY_iodrqQJK1-1" vertex="1">
          <mxGeometry y="26" width="260" height="26" as="geometry" />
        </mxCell>
        <mxCell id="VanpKMeyFY_iodrqQJK1-3" value="" style="line;strokeWidth=1;fillColor=none;align=left;verticalAlign=middle;spacingTop=-1;spacingLeft=3;spacingRight=3;rotatable=0;labelPosition=right;points=[];portConstraint=eastwest;strokeColor=inherit;" parent="VanpKMeyFY_iodrqQJK1-1" vertex="1">
          <mxGeometry y="52" width="260" height="8" as="geometry" />
        </mxCell>
        <mxCell id="VanpKMeyFY_iodrqQJK1-4" value="&lt;div&gt;+ get rowFilled =&amp;gt; checkRows(_boardSize)&lt;/div&gt;" style="text;strokeColor=none;fillColor=none;align=left;verticalAlign=top;spacingLeft=4;spacingRight=4;overflow=hidden;rotatable=0;points=[[0,0.5],[1,0.5]];portConstraint=eastwest;whiteSpace=wrap;html=1;" parent="VanpKMeyFY_iodrqQJK1-1" vertex="1">
          <mxGeometry y="60" width="260" height="26" as="geometry" />
        </mxCell>
        <mxCell id="VanpKMeyFY_iodrqQJK1-6" value="&lt;div&gt;+ get colFilled =&amp;gt; checkCols(_boardSize)&lt;/div&gt;" style="text;strokeColor=none;fillColor=none;align=left;verticalAlign=top;spacingLeft=4;spacingRight=4;overflow=hidden;rotatable=0;points=[[0,0.5],[1,0.5]];portConstraint=eastwest;whiteSpace=wrap;html=1;" parent="VanpKMeyFY_iodrqQJK1-1" vertex="1">
          <mxGeometry y="86" width="260" height="26" as="geometry" />
        </mxCell>
        <mxCell id="mFjeR94_VfId4BxIyaxl-25" value="&lt;div&gt;+ get diagFilled =&amp;gt; checkDiags(_boardSize)&lt;/div&gt;" style="text;strokeColor=none;fillColor=none;align=left;verticalAlign=top;spacingLeft=4;spacingRight=4;overflow=hidden;rotatable=0;points=[[0,0.5],[1,0.5]];portConstraint=eastwest;whiteSpace=wrap;html=1;" vertex="1" parent="VanpKMeyFY_iodrqQJK1-1">
          <mxGeometry y="112" width="260" height="26" as="geometry" />
        </mxCell>
        <mxCell id="mFjeR94_VfId4BxIyaxl-26" value="&lt;div&gt;+ get usedTiles =&amp;gt; plays.where(play.tileId)&lt;/div&gt;" style="text;strokeColor=none;fillColor=none;align=left;verticalAlign=top;spacingLeft=4;spacingRight=4;overflow=hidden;rotatable=0;points=[[0,0.5],[1,0.5]];portConstraint=eastwest;whiteSpace=wrap;html=1;" vertex="1" parent="VanpKMeyFY_iodrqQJK1-1">
          <mxGeometry y="138" width="260" height="26" as="geometry" />
        </mxCell>
        <mxCell id="mFjeR94_VfId4BxIyaxl-29" value="+ get availableTiles =&amp;gt; _boardSize - usedTiles" style="text;strokeColor=none;fillColor=none;align=left;verticalAlign=top;spacingLeft=4;spacingRight=4;overflow=hidden;rotatable=0;points=[[0,0.5],[1,0.5]];portConstraint=eastwest;whiteSpace=wrap;html=1;" vertex="1" parent="VanpKMeyFY_iodrqQJK1-1">
          <mxGeometry y="164" width="260" height="26" as="geometry" />
        </mxCell>
        <mxCell id="mFjeR94_VfId4BxIyaxl-127" style="edgeStyle=orthogonalEdgeStyle;rounded=0;orthogonalLoop=1;jettySize=auto;html=1;entryX=1;entryY=0.5;entryDx=0;entryDy=0;strokeColor=#6666FF;strokeWidth=3;align=center;verticalAlign=middle;fontFamily=Helvetica;fontSize=11;fontColor=default;labelBackgroundColor=default;endArrow=classic;" edge="1" parent="1" source="mFjeR94_VfId4BxIyaxl-1" target="mFjeR94_VfId4BxIyaxl-95">
          <mxGeometry relative="1" as="geometry">
            <Array as="points">
              <mxPoint x="672" y="1610" />
              <mxPoint x="529" y="1610" />
              <mxPoint x="529" y="1593" />
            </Array>
          </mxGeometry>
        </mxCell>
        <mxCell id="mFjeR94_VfId4BxIyaxl-1" value="TurnPlayTile" style="swimlane;fontStyle=1;align=center;verticalAlign=top;childLayout=stackLayout;horizontal=1;startSize=26;horizontalStack=0;resizeParent=1;resizeParentMax=0;resizeLast=0;collapsible=1;marginBottom=0;whiteSpace=wrap;html=1;" vertex="1" parent="1">
          <mxGeometry x="562" y="1445" width="220" height="138" as="geometry" />
        </mxCell>
        <mxCell id="mFjeR94_VfId4BxIyaxl-2" value="+ tileId" style="text;strokeColor=none;fillColor=none;align=left;verticalAlign=top;spacingLeft=4;spacingRight=4;overflow=hidden;rotatable=0;points=[[0,0.5],[1,0.5]];portConstraint=eastwest;whiteSpace=wrap;html=1;" vertex="1" parent="mFjeR94_VfId4BxIyaxl-1">
          <mxGeometry y="26" width="220" height="26" as="geometry" />
        </mxCell>
        <mxCell id="mFjeR94_VfId4BxIyaxl-3" value="+ userId" style="text;strokeColor=none;fillColor=none;align=left;verticalAlign=top;spacingLeft=4;spacingRight=4;overflow=hidden;rotatable=0;points=[[0,0.5],[1,0.5]];portConstraint=eastwest;whiteSpace=wrap;html=1;" vertex="1" parent="mFjeR94_VfId4BxIyaxl-1">
          <mxGeometry y="52" width="220" height="26" as="geometry" />
        </mxCell>
        <mxCell id="mFjeR94_VfId4BxIyaxl-97" value="+ duration" style="text;strokeColor=none;fillColor=none;align=left;verticalAlign=top;spacingLeft=4;spacingRight=4;overflow=hidden;rotatable=0;points=[[0,0.5],[1,0.5]];portConstraint=eastwest;whiteSpace=wrap;html=1;" vertex="1" parent="mFjeR94_VfId4BxIyaxl-1">
          <mxGeometry y="78" width="220" height="26" as="geometry" />
        </mxCell>
        <mxCell id="mFjeR94_VfId4BxIyaxl-4" value="" style="line;strokeWidth=1;fillColor=none;align=left;verticalAlign=middle;spacingTop=-1;spacingLeft=3;spacingRight=3;rotatable=0;labelPosition=right;points=[];portConstraint=eastwest;strokeColor=inherit;" vertex="1" parent="mFjeR94_VfId4BxIyaxl-1">
          <mxGeometry y="104" width="220" height="8" as="geometry" />
        </mxCell>
        <mxCell id="mFjeR94_VfId4BxIyaxl-5" value="+ get occupiedBy =&amp;gt; UserData(userId)" style="text;strokeColor=none;fillColor=none;align=left;verticalAlign=top;spacingLeft=4;spacingRight=4;overflow=hidden;rotatable=0;points=[[0,0.5],[1,0.5]];portConstraint=eastwest;whiteSpace=wrap;html=1;" vertex="1" parent="mFjeR94_VfId4BxIyaxl-1">
          <mxGeometry y="112" width="220" height="26" as="geometry" />
        </mxCell>
        <mxCell id="mFjeR94_VfId4BxIyaxl-125" style="edgeStyle=orthogonalEdgeStyle;rounded=0;orthogonalLoop=1;jettySize=auto;html=1;exitX=0.75;exitY=0;exitDx=0;exitDy=0;strokeColor=#6666FF;strokeWidth=3;align=center;verticalAlign=middle;fontFamily=Helvetica;fontSize=11;fontColor=default;labelBackgroundColor=default;endArrow=classic;" edge="1" parent="1" source="mFjeR94_VfId4BxIyaxl-13">
          <mxGeometry relative="1" as="geometry">
            <mxPoint x="635" y="1380" as="targetPoint" />
            <Array as="points">
              <mxPoint x="383" y="1420" />
              <mxPoint x="635" y="1420" />
            </Array>
          </mxGeometry>
        </mxCell>
        <mxCell id="mFjeR94_VfId4BxIyaxl-13" value="GameData" style="swimlane;fontStyle=1;align=center;verticalAlign=top;childLayout=stackLayout;horizontal=1;startSize=26;horizontalStack=0;resizeParent=1;resizeParentMax=0;resizeLast=0;collapsible=1;marginBottom=0;whiteSpace=wrap;html=1;" vertex="1" parent="1">
          <mxGeometry x="45" y="1450" width="450" height="234" as="geometry" />
        </mxCell>
        <mxCell id="mFjeR94_VfId4BxIyaxl-14" value="&lt;div&gt;+ gameId&lt;/div&gt;" style="text;strokeColor=none;fillColor=none;align=left;verticalAlign=top;spacingLeft=4;spacingRight=4;overflow=hidden;rotatable=0;points=[[0,0.5],[1,0.5]];portConstraint=eastwest;whiteSpace=wrap;html=1;" vertex="1" parent="mFjeR94_VfId4BxIyaxl-13">
          <mxGeometry y="26" width="450" height="26" as="geometry" />
        </mxCell>
        <mxCell id="mFjeR94_VfId4BxIyaxl-15" value="&lt;div&gt;+ dateCreated =&amp;gt; DateTime,&lt;/div&gt;" style="text;strokeColor=none;fillColor=none;align=left;verticalAlign=top;spacingLeft=4;spacingRight=4;overflow=hidden;rotatable=0;points=[[0,0.5],[1,0.5]];portConstraint=eastwest;whiteSpace=wrap;html=1;" vertex="1" parent="mFjeR94_VfId4BxIyaxl-13">
          <mxGeometry y="52" width="450" height="26" as="geometry" />
        </mxCell>
        <mxCell id="mFjeR94_VfId4BxIyaxl-65" value="&lt;div&gt;+ dateLastPlayed =&amp;gt; DateTime,&lt;/div&gt;" style="text;strokeColor=none;fillColor=none;align=left;verticalAlign=top;spacingLeft=4;spacingRight=4;overflow=hidden;rotatable=0;points=[[0,0.5],[1,0.5]];portConstraint=eastwest;whiteSpace=wrap;html=1;" vertex="1" parent="mFjeR94_VfId4BxIyaxl-13">
          <mxGeometry y="78" width="450" height="26" as="geometry" />
        </mxCell>
        <mxCell id="mFjeR94_VfId4BxIyaxl-66" value="&lt;div&gt;+ gameStatus =&amp;gt; [GameStatus =&amp;gt; GameStatusIP, GameStatusComplete]&lt;/div&gt;" style="text;strokeColor=none;fillColor=none;align=left;verticalAlign=top;spacingLeft=4;spacingRight=4;overflow=hidden;rotatable=0;points=[[0,0.5],[1,0.5]];portConstraint=eastwest;whiteSpace=wrap;html=1;" vertex="1" parent="mFjeR94_VfId4BxIyaxl-13">
          <mxGeometry y="104" width="450" height="26" as="geometry" />
        </mxCell>
        <mxCell id="mFjeR94_VfId4BxIyaxl-95" value="&lt;div&gt;+ plays =&amp;gt; &amp;lt;TurnPlay&amp;gt;[].add(TurnPlay)&lt;/div&gt;" style="text;strokeColor=none;fillColor=none;align=left;verticalAlign=top;spacingLeft=4;spacingRight=4;overflow=hidden;rotatable=0;points=[[0,0.5],[1,0.5]];portConstraint=eastwest;whiteSpace=wrap;html=1;" vertex="1" parent="mFjeR94_VfId4BxIyaxl-13">
          <mxGeometry y="130" width="450" height="26" as="geometry" />
        </mxCell>
        <mxCell id="mFjeR94_VfId4BxIyaxl-68" value="&lt;div&gt;+ players =&amp;gt; [&amp;nbsp;{ userId, userData1}, { userId, userData2 },&lt;/div&gt;" style="text;strokeColor=none;fillColor=none;align=left;verticalAlign=top;spacingLeft=4;spacingRight=4;overflow=hidden;rotatable=0;points=[[0,0.5],[1,0.5]];portConstraint=eastwest;whiteSpace=wrap;html=1;" vertex="1" parent="mFjeR94_VfId4BxIyaxl-13">
          <mxGeometry y="156" width="450" height="26" as="geometry" />
        </mxCell>
        <mxCell id="mFjeR94_VfId4BxIyaxl-69" value="&lt;div&gt;+ gameBoard(edgeSize) // Should gameBoard maintain `plays` (and/or `turn`)?&lt;/div&gt;" style="text;strokeColor=none;fillColor=none;align=left;verticalAlign=top;spacingLeft=4;spacingRight=4;overflow=hidden;rotatable=0;points=[[0,0.5],[1,0.5]];portConstraint=eastwest;whiteSpace=wrap;html=1;" vertex="1" parent="mFjeR94_VfId4BxIyaxl-13">
          <mxGeometry y="182" width="450" height="26" as="geometry" />
        </mxCell>
        <mxCell id="mFjeR94_VfId4BxIyaxl-70" value="+ endGameScore =&amp;gt; {&amp;nbsp;userId1: score, // +1 for each game won; +0 for lost games." style="text;strokeColor=none;fillColor=none;align=left;verticalAlign=top;spacingLeft=4;spacingRight=4;overflow=hidden;rotatable=0;points=[[0,0.5],[1,0.5]];portConstraint=eastwest;whiteSpace=wrap;html=1;" vertex="1" parent="mFjeR94_VfId4BxIyaxl-13">
          <mxGeometry y="208" width="450" height="26" as="geometry" />
        </mxCell>
        <mxCell id="mFjeR94_VfId4BxIyaxl-19" value="UserData" style="swimlane;fontStyle=1;align=center;verticalAlign=top;childLayout=stackLayout;horizontal=1;startSize=26;horizontalStack=0;resizeParent=1;resizeParentMax=0;resizeLast=0;collapsible=1;marginBottom=0;whiteSpace=wrap;html=1;" vertex="1" parent="1">
          <mxGeometry x="85.00000000000011" y="1080" width="290" height="130" as="geometry" />
        </mxCell>
        <mxCell id="mFjeR94_VfId4BxIyaxl-20" value="+ userId: int" style="text;strokeColor=none;fillColor=none;align=left;verticalAlign=top;spacingLeft=4;spacingRight=4;overflow=hidden;rotatable=0;points=[[0,0.5],[1,0.5]];portConstraint=eastwest;whiteSpace=wrap;html=1;" vertex="1" parent="mFjeR94_VfId4BxIyaxl-19">
          <mxGeometry y="26" width="290" height="26" as="geometry" />
        </mxCell>
        <mxCell id="mFjeR94_VfId4BxIyaxl-27" value="+ userName: String" style="text;strokeColor=none;fillColor=none;align=left;verticalAlign=top;spacingLeft=4;spacingRight=4;overflow=hidden;rotatable=0;points=[[0,0.5],[1,0.5]];portConstraint=eastwest;whiteSpace=wrap;html=1;" vertex="1" parent="mFjeR94_VfId4BxIyaxl-19">
          <mxGeometry y="52" width="290" height="26" as="geometry" />
        </mxCell>
        <mxCell id="mFjeR94_VfId4BxIyaxl-21" value="&lt;div&gt;+ UserSymbol =&amp;gt; UserSymbolX, UserSymbolO, ...&lt;/div&gt;" style="text;strokeColor=none;fillColor=none;align=left;verticalAlign=top;spacingLeft=4;spacingRight=4;overflow=hidden;rotatable=0;points=[[0,0.5],[1,0.5]];portConstraint=eastwest;whiteSpace=wrap;html=1;" vertex="1" parent="mFjeR94_VfId4BxIyaxl-19">
          <mxGeometry y="78" width="290" height="26" as="geometry" />
        </mxCell>
        <mxCell id="mFjeR94_VfId4BxIyaxl-28" value="+ PlayerType =&amp;gt; PlayerTypeHuman, PlayerTypeBot" style="text;strokeColor=none;fillColor=none;align=left;verticalAlign=top;spacingLeft=4;spacingRight=4;overflow=hidden;rotatable=0;points=[[0,0.5],[1,0.5]];portConstraint=eastwest;whiteSpace=wrap;html=1;" vertex="1" parent="mFjeR94_VfId4BxIyaxl-19">
          <mxGeometry y="104" width="290" height="26" as="geometry" />
        </mxCell>
        <mxCell id="mFjeR94_VfId4BxIyaxl-90" style="edgeStyle=orthogonalEdgeStyle;rounded=0;orthogonalLoop=1;jettySize=auto;html=1;entryX=0.5;entryY=0;entryDx=0;entryDy=0;" edge="1" parent="1" source="mFjeR94_VfId4BxIyaxl-37" target="mFjeR94_VfId4BxIyaxl-89">
          <mxGeometry relative="1" as="geometry" />
        </mxCell>
        <mxCell id="mFjeR94_VfId4BxIyaxl-37" value="GameInit" style="swimlane;fontStyle=1;align=center;verticalAlign=top;childLayout=stackLayout;horizontal=1;startSize=26;horizontalStack=0;resizeParent=1;resizeParentMax=0;resizeLast=0;collapsible=1;marginBottom=0;whiteSpace=wrap;html=1;fillColor=#dae8fc;gradientColor=#7ea6e0;strokeColor=#6c8ebf;" vertex="1" parent="1">
          <mxGeometry x="475.0000000000001" y="870" width="410" height="104" as="geometry" />
        </mxCell>
        <mxCell id="mFjeR94_VfId4BxIyaxl-38" value="&lt;div&gt;+&amp;nbsp;playerList [1-4]: player name(s) | or select from `&lt;span style=&quot;background-color: initial;&quot;&gt;ScoreBook.&lt;/span&gt;&lt;span style=&quot;background-color: initial;&quot;&gt;allPlayers`&lt;/span&gt;&lt;/div&gt;" style="text;strokeColor=none;fillColor=none;align=left;verticalAlign=top;spacingLeft=4;spacingRight=4;overflow=hidden;rotatable=0;points=[[0,0.5],[1,0.5]];portConstraint=eastwest;whiteSpace=wrap;html=1;" vertex="1" parent="mFjeR94_VfId4BxIyaxl-37">
          <mxGeometry y="26" width="410" height="26" as="geometry" />
        </mxCell>
        <mxCell id="mFjeR94_VfId4BxIyaxl-39" value="&lt;div&gt;+ symbol(s) | select from prefilled symbols list&lt;/div&gt;" style="text;strokeColor=none;fillColor=none;align=left;verticalAlign=top;spacingLeft=4;spacingRight=4;overflow=hidden;rotatable=0;points=[[0,0.5],[1,0.5]];portConstraint=eastwest;whiteSpace=wrap;html=1;" vertex="1" parent="mFjeR94_VfId4BxIyaxl-37">
          <mxGeometry y="52" width="410" height="26" as="geometry" />
        </mxCell>
        <mxCell id="mFjeR94_VfId4BxIyaxl-47" value="+ Board size (edgeSize) |&amp;nbsp;Assert: 5 &amp;gt;= edgeSize[3] &amp;gt; players.length &amp;gt;= 1" style="text;strokeColor=none;fillColor=none;align=left;verticalAlign=top;spacingLeft=4;spacingRight=4;overflow=hidden;rotatable=0;points=[[0,0.5],[1,0.5]];portConstraint=eastwest;whiteSpace=wrap;html=1;" vertex="1" parent="mFjeR94_VfId4BxIyaxl-37">
          <mxGeometry y="78" width="410" height="26" as="geometry" />
        </mxCell>
        <mxCell id="mFjeR94_VfId4BxIyaxl-42" value="&lt;font style=&quot;font-size: 14px;&quot;&gt;GamePlay&lt;/font&gt;" style="swimlane;fontStyle=1;align=center;verticalAlign=top;childLayout=stackLayout;horizontal=1;startSize=26;horizontalStack=0;resizeParent=1;resizeParentMax=0;resizeLast=0;collapsible=1;marginBottom=0;whiteSpace=wrap;html=1;fillColor=#e6d0de;strokeColor=#6666FF;gradientColor=#6666FF;fontColor=#0000FF;fontSize=14;opacity=50;" vertex="1" parent="1">
          <mxGeometry x="695" y="1230" width="280" height="120" as="geometry" />
        </mxCell>
        <mxCell id="mFjeR94_VfId4BxIyaxl-44" value="&lt;div&gt;+ turn =&amp;gt; int 1 // 1, 2, 3&lt;/div&gt;" style="text;strokeColor=none;fillColor=none;align=left;verticalAlign=top;spacingLeft=4;spacingRight=4;overflow=hidden;rotatable=0;points=[[0,0.5],[1,0.5]];portConstraint=eastwest;whiteSpace=wrap;html=1;" vertex="1" parent="mFjeR94_VfId4BxIyaxl-42">
          <mxGeometry y="26" width="280" height="26" as="geometry" />
        </mxCell>
        <mxCell id="mFjeR94_VfId4BxIyaxl-58" value="" style="line;strokeWidth=1;fillColor=none;align=left;verticalAlign=middle;spacingTop=-1;spacingLeft=3;spacingRight=3;rotatable=0;labelPosition=right;points=[];portConstraint=eastwest;strokeColor=inherit;" vertex="1" parent="mFjeR94_VfId4BxIyaxl-42">
          <mxGeometry y="52" width="280" height="8" as="geometry" />
        </mxCell>
        <mxCell id="mFjeR94_VfId4BxIyaxl-57" value="&lt;div&gt;&lt;span style=&quot;background-color: initial;&quot;&gt;+ scoreBook.update(gameData)&lt;/span&gt;&lt;br&gt;&lt;/div&gt;" style="text;strokeColor=none;fillColor=none;align=left;verticalAlign=top;spacingLeft=4;spacingRight=4;overflow=hidden;rotatable=0;points=[[0,0.5],[1,0.5]];portConstraint=eastwest;whiteSpace=wrap;html=1;" vertex="1" parent="mFjeR94_VfId4BxIyaxl-42">
          <mxGeometry y="60" width="280" height="26" as="geometry" />
        </mxCell>
        <mxCell id="mFjeR94_VfId4BxIyaxl-45" value="" style="line;strokeWidth=1;fillColor=none;align=left;verticalAlign=middle;spacingTop=-1;spacingLeft=3;spacingRight=3;rotatable=0;labelPosition=right;points=[];portConstraint=eastwest;strokeColor=inherit;" vertex="1" parent="mFjeR94_VfId4BxIyaxl-42">
          <mxGeometry y="86" width="280" height="8" as="geometry" />
        </mxCell>
        <mxCell id="mFjeR94_VfId4BxIyaxl-52" value="&lt;div&gt;+ gameData.plays.add(TurnPlay(UserData, Tile))&lt;/div&gt;" style="text;strokeColor=none;fillColor=none;align=left;verticalAlign=top;spacingLeft=4;spacingRight=4;overflow=hidden;rotatable=0;points=[[0,0.5],[1,0.5]];portConstraint=eastwest;whiteSpace=wrap;html=1;" vertex="1" parent="mFjeR94_VfId4BxIyaxl-42">
          <mxGeometry y="94" width="280" height="26" as="geometry" />
        </mxCell>
        <mxCell id="mFjeR94_VfId4BxIyaxl-93" style="edgeStyle=orthogonalEdgeStyle;rounded=0;orthogonalLoop=1;jettySize=auto;html=1;startArrow=none;startFill=0;exitX=0.25;exitY=1;exitDx=0;exitDy=0;dashed=1;fillColor=#d0cee2;strokeColor=#56517e;entryX=0.75;entryY=0;entryDx=0;entryDy=0;dashPattern=8 8;" edge="1" parent="1" source="mFjeR94_VfId4BxIyaxl-89" target="mFjeR94_VfId4BxIyaxl-71">
          <mxGeometry relative="1" as="geometry" />
        </mxCell>
        <mxCell id="mFjeR94_VfId4BxIyaxl-71" value="&lt;font style=&quot;font-size: 14px;&quot;&gt;ScoreBook&lt;/font&gt;" style="swimlane;fontStyle=1;align=center;verticalAlign=top;childLayout=stackLayout;horizontal=1;startSize=26;horizontalStack=0;resizeParent=1;resizeParentMax=0;resizeLast=0;collapsible=1;marginBottom=0;whiteSpace=wrap;html=1;fillColor=#e6d0de;strokeColor=#6666FF;gradientColor=#6666FF;fontColor=#0000FF;fontSize=14;opacity=50;" vertex="1" parent="1">
          <mxGeometry x="45" y="1230" width="560" height="164" as="geometry" />
        </mxCell>
        <mxCell id="mFjeR94_VfId4BxIyaxl-104" value="&lt;div&gt;+ allPlayers: Map&amp;lt;UserData&amp;gt;(userId: UserData).putIfAbsent(currentPlayers)&lt;/div&gt;" style="text;strokeColor=none;fillColor=none;align=left;verticalAlign=top;spacingLeft=4;spacingRight=4;overflow=hidden;rotatable=0;points=[[0,0.5],[1,0.5]];portConstraint=eastwest;whiteSpace=wrap;html=1;" vertex="1" parent="mFjeR94_VfId4BxIyaxl-71">
          <mxGeometry y="26" width="560" height="26" as="geometry" />
        </mxCell>
        <mxCell id="mFjeR94_VfId4BxIyaxl-100" value="&lt;div&gt;+ allGamesByUserId: Map&amp;lt;int, int&amp;gt;{ userId: gameId1 }&lt;/div&gt;" style="text;strokeColor=none;fillColor=none;align=left;verticalAlign=top;spacingLeft=4;spacingRight=4;overflow=hidden;rotatable=0;points=[[0,0.5],[1,0.5]];portConstraint=eastwest;whiteSpace=wrap;html=1;" vertex="1" parent="mFjeR94_VfId4BxIyaxl-71">
          <mxGeometry y="52" width="560" height="26" as="geometry" />
        </mxCell>
        <mxCell id="mFjeR94_VfId4BxIyaxl-102" value="&lt;div&gt;+ allGames: &amp;lt;int, GameData&amp;gt;{ gameId1: GameData, gameId2: GameData }.add(GameData)&lt;/div&gt;" style="text;strokeColor=none;fillColor=none;align=left;verticalAlign=top;spacingLeft=4;spacingRight=4;overflow=hidden;rotatable=0;points=[[0,0.5],[1,0.5]];portConstraint=eastwest;whiteSpace=wrap;html=1;" vertex="1" parent="mFjeR94_VfId4BxIyaxl-71">
          <mxGeometry y="78" width="560" height="26" as="geometry" />
        </mxCell>
        <mxCell id="mFjeR94_VfId4BxIyaxl-101" value="" style="line;strokeWidth=1;fillColor=none;align=left;verticalAlign=middle;spacingTop=-1;spacingLeft=3;spacingRight=3;rotatable=0;labelPosition=right;points=[];portConstraint=eastwest;strokeColor=inherit;" vertex="1" parent="mFjeR94_VfId4BxIyaxl-71">
          <mxGeometry y="104" width="560" height="8" as="geometry" />
        </mxCell>
        <mxCell id="mFjeR94_VfId4BxIyaxl-103" value="+ initGame(gameData.players) =&amp;gt;&amp;nbsp;allGames.add(), allGamesByUserId.addAll(), allPlayers.putIfAbsent()" style="text;strokeColor=none;fillColor=none;align=left;verticalAlign=top;spacingLeft=4;spacingRight=4;overflow=hidden;rotatable=0;points=[[0,0.5],[1,0.5]];portConstraint=eastwest;whiteSpace=wrap;html=1;" vertex="1" parent="mFjeR94_VfId4BxIyaxl-71">
          <mxGeometry y="112" width="560" height="26" as="geometry" />
        </mxCell>
        <mxCell id="mFjeR94_VfId4BxIyaxl-105" value="+ updateGame(gameData) =&amp;gt; allGames.updateWhere(gameData)" style="text;strokeColor=none;fillColor=none;align=left;verticalAlign=top;spacingLeft=4;spacingRight=4;overflow=hidden;rotatable=0;points=[[0,0.5],[1,0.5]];portConstraint=eastwest;whiteSpace=wrap;html=1;" vertex="1" parent="mFjeR94_VfId4BxIyaxl-71">
          <mxGeometry y="138" width="560" height="26" as="geometry" />
        </mxCell>
        <mxCell id="mFjeR94_VfId4BxIyaxl-109" style="edgeStyle=orthogonalEdgeStyle;rounded=0;orthogonalLoop=1;jettySize=auto;html=1;exitX=1;exitY=0.5;exitDx=0;exitDy=0;entryX=0.5;entryY=0;entryDx=0;entryDy=0;dashed=1;fillColor=#d0cee2;strokeColor=#56517e;dashPattern=8 8;" edge="1" parent="1" source="mFjeR94_VfId4BxIyaxl-89" target="VanpKMeyFY_iodrqQJK1-1">
          <mxGeometry relative="1" as="geometry">
            <Array as="points">
              <mxPoint x="1005" y="1070" />
              <mxPoint x="1005" y="1370" />
              <mxPoint x="945" y="1370" />
            </Array>
          </mxGeometry>
        </mxCell>
        <mxCell id="mFjeR94_VfId4BxIyaxl-89" value="&lt;div&gt;/// Object Instantiation&lt;/div&gt;&lt;div&gt;--&amp;gt; gameId =&amp;gt; ScoreBook.allGames.keys.last+1&lt;/div&gt;&lt;div&gt;--&amp;gt; players =&amp;gt; List.of(playerList.forEach(UserData(name, symbol)))&lt;/div&gt;&lt;div&gt;--&amp;gt; gameBoard =&amp;gt; GameBoard(int edgeSize)&lt;/div&gt;&lt;div&gt;--&amp;gt; [&lt;b&gt;&lt;font color=&quot;#6666ff&quot;&gt;GamePlay&lt;/font&gt;&lt;/b&gt;]&lt;br&gt;&amp;nbsp; --&amp;gt; [GameData](int gameId, &amp;lt;UserData&amp;gt;[] players, gameBoard) =&amp;gt; gameData&lt;br&gt;&lt;span style=&quot;background-color: initial;&quot;&gt;--&amp;gt; [&lt;b&gt;&lt;font color=&quot;#6666ff&quot;&gt;ScoreBook&lt;/font&gt;&lt;/b&gt;](GameData gameData) =&amp;gt; scoreBook | initGame(gameData)&lt;/span&gt;&lt;br&gt;&lt;/div&gt;" style="shape=process;whiteSpace=wrap;html=1;backgroundOutline=1;size=0.03278688524590164;align=left;verticalAlign=top;spacing=6;spacingLeft=6;strokeColor=#6666FF;" vertex="1" parent="1">
          <mxGeometry x="425" y="1011" width="510" height="119" as="geometry" />
        </mxCell>
        <mxCell id="mFjeR94_VfId4BxIyaxl-92" style="edgeStyle=orthogonalEdgeStyle;rounded=0;orthogonalLoop=1;jettySize=auto;html=1;exitX=0.5;exitY=1;exitDx=0;exitDy=0;entryX=0.5;entryY=0;entryDx=0;entryDy=0;dashed=1;fillColor=#d0cee2;strokeColor=#56517e;dashPattern=8 8;" edge="1" parent="1" source="mFjeR94_VfId4BxIyaxl-89" target="mFjeR94_VfId4BxIyaxl-42">
          <mxGeometry relative="1" as="geometry">
            <mxPoint x="690" y="1131" as="sourcePoint" />
            <mxPoint x="410.0000000000001" y="1240" as="targetPoint" />
          </mxGeometry>
        </mxCell>
        <mxCell id="mFjeR94_VfId4BxIyaxl-106" style="edgeStyle=orthogonalEdgeStyle;rounded=0;orthogonalLoop=1;jettySize=auto;html=1;exitX=0;exitY=0.5;exitDx=0;exitDy=0;entryX=1;entryY=0.5;entryDx=0;entryDy=0;strokeWidth=2;strokeColor=#6666FF;" edge="1" parent="1" source="mFjeR94_VfId4BxIyaxl-57" target="mFjeR94_VfId4BxIyaxl-105">
          <mxGeometry relative="1" as="geometry">
            <Array as="points">
              <mxPoint x="635" y="1303" />
              <mxPoint x="635" y="1381" />
            </Array>
          </mxGeometry>
        </mxCell>
        <mxCell id="mFjeR94_VfId4BxIyaxl-115" style="edgeStyle=orthogonalEdgeStyle;rounded=0;orthogonalLoop=1;jettySize=auto;html=1;exitX=0;exitY=0.5;exitDx=0;exitDy=0;entryX=0.5;entryY=0;entryDx=0;entryDy=0;strokeWidth=3;strokeColor=#6666FF;" edge="1" parent="1" source="mFjeR94_VfId4BxIyaxl-52" target="mFjeR94_VfId4BxIyaxl-1">
          <mxGeometry relative="1" as="geometry" />
        </mxCell>
        <mxCell id="mFjeR94_VfId4BxIyaxl-120" style="edgeStyle=orthogonalEdgeStyle;rounded=0;orthogonalLoop=1;jettySize=auto;html=1;exitX=0;exitY=0.5;exitDx=0;exitDy=0;entryX=0;entryY=0.5;entryDx=0;entryDy=0;dashed=1;strokeColor=#6666FF;" edge="1" parent="1" source="mFjeR94_VfId4BxIyaxl-104" target="mFjeR94_VfId4BxIyaxl-38">
          <mxGeometry relative="1" as="geometry">
            <Array as="points">
              <mxPoint x="25" y="1269" />
              <mxPoint x="25" y="910" />
              <mxPoint x="415" y="910" />
            </Array>
          </mxGeometry>
        </mxCell>
        <mxCell id="mFjeR94_VfId4BxIyaxl-121" style="edgeStyle=orthogonalEdgeStyle;rounded=0;orthogonalLoop=1;jettySize=auto;html=1;entryX=0;entryY=0.379;entryDx=0;entryDy=0;entryPerimeter=0;exitX=0.75;exitY=0;exitDx=0;exitDy=0;dashed=1;strokeColor=#6666FF;" edge="1" parent="1" source="mFjeR94_VfId4BxIyaxl-19" target="mFjeR94_VfId4BxIyaxl-89">
          <mxGeometry relative="1" as="geometry" />
        </mxCell>
        <mxCell id="mFjeR94_VfId4BxIyaxl-124" style="edgeStyle=orthogonalEdgeStyle;rounded=0;orthogonalLoop=1;jettySize=auto;html=1;strokeColor=#6666FF;strokeWidth=3;align=center;verticalAlign=middle;fontFamily=Helvetica;fontSize=11;fontColor=default;labelBackgroundColor=default;endArrow=classic;exitX=1;exitY=0.5;exitDx=0;exitDy=0;" edge="1" parent="1" source="mFjeR94_VfId4BxIyaxl-69" target="VanpKMeyFY_iodrqQJK1-1">
          <mxGeometry relative="1" as="geometry" />
        </mxCell>
        <mxCell id="mFjeR94_VfId4BxIyaxl-126" value="Dev Play: Tic Tac Toe" style="text;html=1;align=center;verticalAlign=middle;whiteSpace=wrap;rounded=0;fontSize=22;fillColor=#dae8fc;gradientColor=#7ea6e0;strokeColor=#6c8ebf;opacity=60;" vertex="1" parent="1">
          <mxGeometry x="75" y="950" width="250" height="50" as="geometry" />
        </mxCell>
      </root>
    </mxGraphModel>
  </diagram>
</mxfile>
